<svg data-v-0dd9719b="" version="1.0" xmlns="http://www.w3.org/2000/svg" width="100%" height="100%"
     viewBox="0 0 60 70">
  <rect x="0" y="0" width="100%" height="100%" fill="#ffffff" fill-opacity="0"/>
  <g fill="#333">
    <g>
      <g>
        <rect fill="#333" fill-opacity="0" stroke-width="2" x="0" y="0" width="60" height="69.34011325551832"/>
        <svg x="0" y="0" width="60" height="69.34011325551832">
          <svg xmlns="http://www.w3.org/2000/svg" viewBox="0 0 86.52999877929688 100">
            <path fill="#2084f7" d="M20.82 87.16L0 75.28V25.04l20.82 12.33v49.79z"/>
            <path fill="#22cfee" d="M18.95 14.03L0 25.04l20.82 12.33 18.95-10.83-20.82-12.51z"/>
            <path fill="#23b0f1" d="M86.53 50.55l-.11 24.39L43.03 100l.14-24.56 43.36-24.89z"/>
            <path fill="#2084f7" d="M24.1 88.87L43.03 100l.14-24.56-19.02-10.58-.05 24.01z"/>
            <path fill="#22cfee" d="M22.41 12.17L43.06 0l43.28 25.04L65.92 37.2 22.41 12.17z"/>
            <path fill="#23b0f1" d="M86.37 46.98l-.03-21.94L65.92 37.2l.02 21.81 20.43-12.03z"/>
            <path fill="#22cfee" d="M60.79 60.12L43.27 70.23 25.75 60.12V39.88l17.52-10.11 17.52 10.11v20.24z"/>
          </svg>
        </svg>
      </g>
    </g>
  </g>
</svg>
