<svg data-v-0dd9719b="" version="1.0" xmlns="http://www.w3.org/2000/svg" width="100%" height="100%"
     viewBox="0 0 150 150">
  <rect x="0" y="0" width="100%" height="100%" fill="#ffffff" fill-opacity="0"/>
  <g fill="#333" transform="translate(6,10)">
    <g transform="translate(39.355,0)">
      <g>
        <rect fill="#333" fill-opacity="0" stroke-width="2" x="0" y="0" width="60" height="69.34011325551832"/>
        <svg x="0" y="0" width="60" height="69.34011325551832">
          <svg xmlns="http://www.w3.org/2000/svg" viewBox="0 0 86.52999877929688 100">
            <path fill="#2084f7" d="M20.82 87.16L0 75.28V25.04l20.82 12.33v49.79z"/>
            <path fill="#22cfee" d="M18.95 14.03L0 25.04l20.82 12.33 18.95-10.83-20.82-12.51z"/>
            <path fill="#23b0f1" d="M86.53 50.55l-.11 24.39L43.03 100l.14-24.56 43.36-24.89z"/>
            <path fill="#2084f7" d="M24.1 88.87L43.03 100l.14-24.56-19.02-10.58-.05 24.01z"/>
            <path fill="#22cfee" d="M22.41 12.17L43.06 0l43.28 25.04L65.92 37.2 22.41 12.17z"/>
            <path fill="#23b0f1" d="M86.37 46.98l-.03-21.94L65.92 37.2l.02 21.81 20.43-12.03z"/>
            <path fill="#22cfee" d="M60.79 60.12L43.27 70.23 25.75 60.12V39.88l17.52-10.11 17.52 10.11v20.24z"/>
          </svg>
        </svg>
      </g>
    </g>
    <g transform="translate(0,76.3401107788086)">
      <g>
        <g>
          <g>
            <path
              d="M4.29 0L16.84 0 16.84-32.7 17.23-32.7 23.46-7.21 36.08-7.21 42.51-32.7 42.9-32.7 42.9 0 55.58 0 55.58-45.11 35.23-45.11 30.23-22.49 29.84-22.49 25.41-45.11 4.29-45.11ZM76.31 0L92.37 0 108.55-45.11 94.9-45.11 84.89-13.78 84.5-13.78 75.01-45.11 60.58-45.11ZM125.71 0.65C139.69 0.65 144.04-4.62 144.04-13.59 144.04-21.78 142.68-25.35 131.43-28.28 125.84-29.71 124.87-30.16 124.87-32.24 124.87-34.38 126.49-35.36 130.65-35.36 134.22-35.36 139.88-34.52 141.76-33.8L141.76-44.13C139.23-44.98 135.72-45.76 130.06-45.76 119.28-45.76 112.39-42.38 112.39-31.72 112.39-23.73 114.72-20.61 124.61-18.33 130.26-16.96 131.1-15.86 131.1-13.97 131.1-11.18 130.39-10.27 125-10.27 120.97-10.27 115.7-11.12 112.71-11.96L112.71-0.84C115.89-0.07 120.7 0.65 125.71 0.65Z"
              transform="translate(-4.289999961853027, 45.7599983215332)"/>
          </g>
        </g>
      </g>
    </g>
  </g>
</svg>
